<svg width="167" height="67" viewBox="0 0 167 67" fill="none" xmlns="http://www.w3.org/2000/svg">
<mask id="path-1-outside-1_107_21" maskUnits="userSpaceOnUse" x="105.258" y="51.5627" width="42" height="16" fill="black">
<rect fill="white" x="105.258" y="51.5627" width="42" height="16"/>
<path d="M107.239 62.4113C108.031 62.6804 108.762 62.815 109.43 62.815C111.458 62.815 112.472 61.686 112.472 59.4281C112.472 57.4194 111.463 56.415 109.444 56.415C108.747 56.415 108.011 56.4749 107.239 56.5945V62.4113ZM106.454 56.0337C107.346 55.8194 108.348 55.7122 109.459 55.7122C111.977 55.7122 113.235 56.9558 113.235 59.4431C113.235 62.1895 111.969 63.5627 109.437 63.5627C108.809 63.5627 108.076 63.438 107.239 63.1888V66.4038H106.454V56.0337ZM115.583 52.8711V63.5627H114.798V52.8711H115.583ZM120.683 55.7122C122.831 55.7122 123.905 56.901 123.905 59.2786C123.905 59.448 123.9 59.625 123.89 59.8094H117.932C117.932 61.863 119.018 62.8898 121.191 62.8898C122.084 62.8898 122.876 62.7652 123.569 62.5159V63.1888C122.876 63.438 122.084 63.5627 121.191 63.5627C118.495 63.5627 117.147 62.2243 117.147 59.5477C117.147 56.9907 118.325 55.7122 120.683 55.7122ZM117.932 59.1066H123.15C123.12 57.2823 122.298 56.3702 120.683 56.3702C118.938 56.3702 118.021 57.2823 117.932 59.1066ZM124.863 61.3421C124.863 59.782 125.9 59.0019 127.973 59.0019C128.706 59.0019 129.488 59.0518 130.321 59.1515V58.187C130.321 56.9858 129.566 56.3851 128.055 56.3851C127.248 56.3851 126.421 56.5097 125.573 56.759V56.0861C126.421 55.8369 127.248 55.7122 128.055 55.7122C130.089 55.7122 131.106 56.5247 131.106 58.1496V63.5627H130.627L130.448 62.7851C129.466 63.3035 128.514 63.5627 127.592 63.5627C125.773 63.5627 124.863 62.8225 124.863 61.3421ZM127.973 59.6748C126.423 59.6748 125.648 60.2231 125.648 61.3197C125.648 62.3664 126.296 62.8898 127.592 62.8898C128.549 62.8898 129.459 62.6356 130.321 62.1271V59.8244C129.488 59.7247 128.706 59.6748 127.973 59.6748ZM132.744 63.1888V62.4412C133.616 62.7402 134.473 62.8898 135.316 62.8898C136.966 62.8898 137.791 62.3664 137.791 61.3197C137.791 60.4723 137.18 60.0487 135.959 60.0487H134.957C133.312 60.0487 132.49 59.3508 132.49 57.9552C132.49 56.4599 133.579 55.7122 135.757 55.7122C136.594 55.7122 137.449 55.8369 138.321 56.0861V56.8337C137.449 56.5347 136.594 56.3851 135.757 56.3851C134.102 56.3851 133.275 56.9085 133.275 57.9552C133.275 58.8524 133.835 59.301 134.957 59.301H135.959C137.703 59.301 138.576 59.9739 138.576 61.3197C138.576 62.815 137.489 63.5627 135.316 63.5627C134.473 63.5627 133.616 63.438 132.744 63.1888ZM143.144 55.7122C145.293 55.7122 146.367 56.901 146.367 59.2786C146.367 59.448 146.362 59.625 146.352 59.8094H140.393C140.393 61.863 141.48 62.8898 143.653 62.8898C144.545 62.8898 145.338 62.7652 146.03 62.5159V63.1888C145.338 63.438 144.545 63.5627 143.653 63.5627C140.956 63.5627 139.608 62.2243 139.608 59.5477C139.608 56.9907 140.787 55.7122 143.144 55.7122ZM140.393 59.1066H145.612C145.582 57.2823 144.759 56.3702 143.144 56.3702C141.4 56.3702 140.483 57.2823 140.393 59.1066Z"/>
</mask>
<path d="M107.239 62.4113C108.031 62.6804 108.762 62.815 109.43 62.815C111.458 62.815 112.472 61.686 112.472 59.4281C112.472 57.4194 111.463 56.415 109.444 56.415C108.747 56.415 108.011 56.4749 107.239 56.5945V62.4113ZM106.454 56.0337C107.346 55.8194 108.348 55.7122 109.459 55.7122C111.977 55.7122 113.235 56.9558 113.235 59.4431C113.235 62.1895 111.969 63.5627 109.437 63.5627C108.809 63.5627 108.076 63.438 107.239 63.1888V66.4038H106.454V56.0337ZM115.583 52.8711V63.5627H114.798V52.8711H115.583ZM120.683 55.7122C122.831 55.7122 123.905 56.901 123.905 59.2786C123.905 59.448 123.9 59.625 123.89 59.8094H117.932C117.932 61.863 119.018 62.8898 121.191 62.8898C122.084 62.8898 122.876 62.7652 123.569 62.5159V63.1888C122.876 63.438 122.084 63.5627 121.191 63.5627C118.495 63.5627 117.147 62.2243 117.147 59.5477C117.147 56.9907 118.325 55.7122 120.683 55.7122ZM117.932 59.1066H123.15C123.12 57.2823 122.298 56.3702 120.683 56.3702C118.938 56.3702 118.021 57.2823 117.932 59.1066ZM124.863 61.3421C124.863 59.782 125.9 59.0019 127.973 59.0019C128.706 59.0019 129.488 59.0518 130.321 59.1515V58.187C130.321 56.9858 129.566 56.3851 128.055 56.3851C127.248 56.3851 126.421 56.5097 125.573 56.759V56.0861C126.421 55.8369 127.248 55.7122 128.055 55.7122C130.089 55.7122 131.106 56.5247 131.106 58.1496V63.5627H130.627L130.448 62.7851C129.466 63.3035 128.514 63.5627 127.592 63.5627C125.773 63.5627 124.863 62.8225 124.863 61.3421ZM127.973 59.6748C126.423 59.6748 125.648 60.2231 125.648 61.3197C125.648 62.3664 126.296 62.8898 127.592 62.8898C128.549 62.8898 129.459 62.6356 130.321 62.1271V59.8244C129.488 59.7247 128.706 59.6748 127.973 59.6748ZM132.744 63.1888V62.4412C133.616 62.7402 134.473 62.8898 135.316 62.8898C136.966 62.8898 137.791 62.3664 137.791 61.3197C137.791 60.4723 137.18 60.0487 135.959 60.0487H134.957C133.312 60.0487 132.49 59.3508 132.49 57.9552C132.49 56.4599 133.579 55.7122 135.757 55.7122C136.594 55.7122 137.449 55.8369 138.321 56.0861V56.8337C137.449 56.5347 136.594 56.3851 135.757 56.3851C134.102 56.3851 133.275 56.9085 133.275 57.9552C133.275 58.8524 133.835 59.301 134.957 59.301H135.959C137.703 59.301 138.576 59.9739 138.576 61.3197C138.576 62.815 137.489 63.5627 135.316 63.5627C134.473 63.5627 133.616 63.438 132.744 63.1888ZM143.144 55.7122C145.293 55.7122 146.367 56.901 146.367 59.2786C146.367 59.448 146.362 59.625 146.352 59.8094H140.393C140.393 61.863 141.48 62.8898 143.653 62.8898C144.545 62.8898 145.338 62.7652 146.03 62.5159V63.1888C145.338 63.438 144.545 63.5627 143.653 63.5627C140.956 63.5627 139.608 62.2243 139.608 59.5477C139.608 56.9907 140.787 55.7122 143.144 55.7122ZM140.393 59.1066H145.612C145.582 57.2823 144.759 56.3702 143.144 56.3702C141.4 56.3702 140.483 57.2823 140.393 59.1066Z" fill="#EFDFC6"/>
<path d="M107.239 62.4113H106.836V62.7L107.109 62.7928L107.239 62.4113ZM107.239 56.5945L107.177 56.1963L106.836 56.2491V56.5945H107.239ZM106.454 56.0337L106.36 55.6419L106.051 55.7161V56.0337H106.454ZM107.239 63.1888L107.354 62.8026L106.836 62.6485V63.1888H107.239ZM107.239 66.4038V66.8067H107.642V66.4038H107.239ZM106.454 66.4038H106.051V66.8067H106.454V66.4038ZM107.109 62.7928C107.933 63.0727 108.708 63.2179 109.43 63.2179V62.412C108.815 62.412 108.129 62.2881 107.368 62.0297L107.109 62.7928ZM109.43 63.2179C110.518 63.2179 111.404 62.9132 112.011 62.2376C112.611 61.5702 112.875 60.6092 112.875 59.4281H112.07C112.07 60.505 111.827 61.2374 111.412 61.699C111.005 62.1524 110.37 62.412 109.43 62.412V63.2179ZM112.875 59.4281C112.875 58.3611 112.607 57.487 112 56.8827C111.393 56.2787 110.515 56.0121 109.444 56.0121V56.818C110.392 56.818 111.029 57.0535 111.431 57.4539C111.833 57.854 112.07 58.4864 112.07 59.4281H112.875ZM109.444 56.0121C108.724 56.0121 107.968 56.0739 107.177 56.1963L107.301 56.9927C108.055 56.8758 108.77 56.818 109.444 56.818V56.0121ZM106.836 56.5945V62.4113H107.642V56.5945H106.836ZM106.548 56.4255C107.404 56.22 108.373 56.1152 109.459 56.1152V55.3093C108.323 55.3093 107.288 55.4188 106.36 55.6419L106.548 56.4255ZM109.459 56.1152C110.657 56.1152 111.481 56.4109 112.008 56.9316C112.534 57.4513 112.832 58.2628 112.832 59.4431H113.638C113.638 58.1361 113.307 57.0822 112.574 56.3583C111.843 55.6354 110.779 55.3093 109.459 55.3093V56.1152ZM112.832 59.4431C112.832 60.7619 112.527 61.6759 111.989 62.2596C111.457 62.8372 110.632 63.1597 109.437 63.1597V63.9656C110.774 63.9656 111.848 63.6016 112.582 62.8059C113.31 62.0164 113.638 60.8706 113.638 59.4431H112.832ZM109.437 63.1597C108.86 63.1597 108.167 63.0447 107.354 62.8026L107.124 63.575C107.985 63.8314 108.758 63.9656 109.437 63.9656V63.1597ZM106.836 63.1888V66.4038H107.642V63.1888H106.836ZM107.239 66.0008H106.454V66.8067H107.239V66.0008ZM106.857 66.4038V56.0337H106.051V66.4038H106.857ZM115.583 52.8711H115.986V52.4682H115.583V52.8711ZM115.583 63.5627V63.9656H115.986V63.5627H115.583ZM114.798 63.5627H114.395V63.9656H114.798V63.5627ZM114.798 52.8711V52.4682H114.395V52.8711H114.798ZM115.18 52.8711V63.5627H115.986V52.8711H115.18ZM115.583 63.1597H114.798V63.9656H115.583V63.1597ZM115.201 63.5627V52.8711H114.395V63.5627H115.201ZM114.798 53.2741H115.583V52.4682H114.798V53.2741ZM123.89 59.8094V60.2124H124.272L124.293 59.8312L123.89 59.8094ZM117.932 59.8094V59.4065H117.529V59.8094H117.932ZM123.569 62.5159H123.972V61.9428L123.433 62.1368L123.569 62.5159ZM123.569 63.1888L123.705 63.568L123.972 63.4721V63.1888H123.569ZM117.932 59.1066L117.529 59.0868L117.508 59.5096H117.932V59.1066ZM123.15 59.1066V59.5096H123.56L123.553 59.1L123.15 59.1066ZM120.683 56.1152C121.684 56.1152 122.364 56.3902 122.801 56.874C123.245 57.3655 123.502 58.1424 123.502 59.2786H124.308C124.308 58.0372 124.029 57.031 123.399 56.3337C122.762 55.6286 121.83 55.3093 120.683 55.3093V56.1152ZM123.502 59.2786C123.502 59.4402 123.498 59.6098 123.488 59.7877L124.293 59.8312C124.303 59.6401 124.308 59.4559 124.308 59.2786H123.502ZM123.89 59.4065H117.932V60.2124H123.89V59.4065ZM117.529 59.8094C117.529 60.9043 117.819 61.798 118.47 62.4125C119.116 63.0231 120.048 63.2927 121.191 63.2927V62.4868C120.161 62.4868 119.464 62.2431 119.023 61.8268C118.587 61.4146 118.335 60.7681 118.335 59.8094H117.529ZM121.191 63.2927C122.121 63.2927 122.961 63.163 123.705 62.8951L123.433 62.1368C122.792 62.3673 122.047 62.4868 121.191 62.4868V63.2927ZM123.166 62.5159V63.1888H123.972V62.5159H123.166ZM123.433 62.8097C122.792 63.0402 122.047 63.1597 121.191 63.1597V63.9656C122.121 63.9656 122.961 63.8359 123.705 63.568L123.433 62.8097ZM121.191 63.1597C119.904 63.1597 119.013 62.8405 118.442 62.2729C117.87 61.7059 117.549 60.8232 117.549 59.5477H116.744C116.744 60.9489 117.097 62.0736 117.874 62.8449C118.65 63.6156 119.782 63.9656 121.191 63.9656V63.1597ZM117.549 59.5477C117.549 58.3236 117.832 57.4806 118.327 56.9443C118.816 56.4141 119.575 56.1152 120.683 56.1152V55.3093C119.433 55.3093 118.424 55.6497 117.734 56.398C117.05 57.1401 116.744 58.2149 116.744 59.5477H117.549ZM117.932 59.5096H123.15V58.7037H117.932V59.5096ZM123.553 59.1C123.537 58.1365 123.312 57.341 122.81 56.7845C122.3 56.2191 121.567 55.9672 120.683 55.9672V56.7731C121.414 56.7731 121.899 56.9774 122.212 57.3241C122.532 57.6798 122.733 58.2525 122.747 59.1132L123.553 59.1ZM120.683 55.9672C119.742 55.9672 118.96 56.2142 118.403 56.7686C117.848 57.32 117.577 58.1156 117.529 59.0868L118.334 59.1264C118.376 58.2733 118.608 57.7007 118.971 57.34C119.331 56.9822 119.879 56.7731 120.683 56.7731V55.9672ZM130.321 59.1515L130.273 59.5516L130.724 59.6056V59.1515H130.321ZM125.573 56.759H125.17V57.2975L125.687 57.1455L125.573 56.759ZM125.573 56.0861L125.46 55.6995L125.17 55.7846V56.0861H125.573ZM131.106 63.5627V63.9656H131.509V63.5627H131.106ZM130.627 63.5627L130.235 63.6533L130.307 63.9656H130.627V63.5627ZM130.448 62.7851L130.841 62.6945L130.723 62.1843L130.26 62.4287L130.448 62.7851ZM130.321 62.1271L130.526 62.4743L130.724 62.3573V62.1271H130.321ZM130.321 59.8244H130.724V59.4668L130.369 59.4243L130.321 59.8244ZM125.266 61.3421C125.266 60.6599 125.487 60.2071 125.883 59.909C126.301 59.5946 126.975 59.4049 127.973 59.4049V58.599C126.898 58.599 126.017 58.7993 125.398 59.265C124.758 59.7469 124.46 60.4642 124.46 61.3421H125.266ZM127.973 59.4049C128.688 59.4049 129.454 59.4535 130.273 59.5516L130.369 58.7514C129.523 58.6501 128.724 58.599 127.973 58.599V59.4049ZM130.724 59.1515V58.187H129.918V59.1515H130.724ZM130.724 58.187C130.724 57.4966 130.502 56.9154 130.005 56.5202C129.526 56.139 128.853 55.9822 128.055 55.9822V56.7881C128.768 56.7881 129.228 56.9315 129.504 57.151C129.762 57.3564 129.918 57.6761 129.918 58.187H130.724ZM128.055 55.9822C127.206 55.9822 126.34 56.1133 125.46 56.3724L125.687 57.1455C126.501 56.9062 127.29 56.7881 128.055 56.7881V55.9822ZM125.976 56.759V56.0861H125.17V56.759H125.976ZM125.687 56.4726C126.501 56.2333 127.29 56.1152 128.055 56.1152V55.3093C127.206 55.3093 126.34 55.4404 125.46 55.6995L125.687 56.4726ZM128.055 56.1152C129.029 56.1152 129.685 56.3115 130.092 56.6364C130.481 56.9475 130.703 57.4263 130.703 58.1496H131.509C131.509 57.248 131.222 56.5081 130.595 56.0068C129.985 55.5192 129.115 55.3093 128.055 55.3093V56.1152ZM130.703 58.1496V63.5627H131.509V58.1496H130.703ZM131.106 63.1597H130.627V63.9656H131.106V63.1597ZM131.02 63.472L130.841 62.6945L130.055 62.8757L130.235 63.6533L131.02 63.472ZM130.26 62.4287C129.324 62.9227 128.436 63.1597 127.592 63.1597V63.9656C128.592 63.9656 129.608 63.6842 130.636 63.1414L130.26 62.4287ZM127.592 63.1597C126.727 63.1597 126.152 62.982 125.8 62.695C125.463 62.4209 125.266 61.9957 125.266 61.3421H124.46C124.46 62.1689 124.718 62.854 125.291 63.3201C125.848 63.7732 126.638 63.9656 127.592 63.9656V63.1597ZM127.973 59.2719C127.163 59.2719 126.483 59.413 125.997 59.7571C125.485 60.1193 125.245 60.6639 125.245 61.3197H126.051C126.051 60.8789 126.199 60.6011 126.462 60.415C126.751 60.2108 127.233 60.0778 127.973 60.0778V59.2719ZM125.245 61.3197C125.245 61.9306 125.438 62.4534 125.881 62.8107C126.307 63.1547 126.9 63.2927 127.592 63.2927V62.4868C126.988 62.4868 126.609 62.3631 126.387 62.1838C126.182 62.0177 126.051 61.7554 126.051 61.3197H125.245ZM127.592 63.2927C128.624 63.2927 129.604 63.0175 130.526 62.4743L130.116 61.78C129.313 62.2536 128.474 62.4868 127.592 62.4868V63.2927ZM130.724 62.1271V59.8244H129.918V62.1271H130.724ZM130.369 59.4243C129.523 59.3229 128.724 59.2719 127.973 59.2719V60.0778C128.688 60.0778 129.454 60.1264 130.273 60.2245L130.369 59.4243ZM132.744 63.1888H132.341V63.4928L132.633 63.5763L132.744 63.1888ZM132.744 62.4412L132.875 62.06L132.341 61.877V62.4412H132.744ZM138.321 56.0861H138.724V55.7821L138.432 55.6986L138.321 56.0861ZM138.321 56.8337L138.191 57.2149L138.724 57.3979V56.8337H138.321ZM133.147 63.1888V62.4412H132.341V63.1888H133.147ZM132.613 62.8223C133.524 63.1345 134.425 63.2927 135.316 63.2927V62.4868C134.522 62.4868 133.709 62.346 132.875 62.06L132.613 62.8223ZM135.316 63.2927C136.17 63.2927 136.88 63.1595 137.388 62.8375C137.926 62.4958 138.194 61.9692 138.194 61.3197H137.388C137.388 61.7169 137.242 61.9753 136.956 62.157C136.639 62.3583 136.111 62.4868 135.316 62.4868V63.2927ZM138.194 61.3197C138.194 60.7854 137.993 60.3339 137.562 60.0354C137.159 59.7553 136.604 59.6457 135.959 59.6457V60.4516C136.535 60.4516 136.896 60.5539 137.103 60.6975C137.283 60.8226 137.388 61.0066 137.388 61.3197H138.194ZM135.959 59.6457H134.957V60.4516H135.959V59.6457ZM134.957 59.6457C134.182 59.6457 133.676 59.4799 133.367 59.218C133.071 58.9669 132.893 58.572 132.893 57.9552H132.087C132.087 58.7341 132.319 59.3858 132.846 59.8326C133.36 60.2685 134.087 60.4516 134.957 60.4516V59.6457ZM132.893 57.9552C132.893 57.32 133.115 56.893 133.535 56.6052C133.981 56.2986 134.701 56.1152 135.757 56.1152V55.3093C134.634 55.3093 133.721 55.4997 133.078 55.9408C132.409 56.4006 132.087 57.0952 132.087 57.9552H132.893ZM135.757 56.1152C136.554 56.1152 137.371 56.2337 138.211 56.4735L138.432 55.6986C137.527 55.44 136.635 55.3093 135.757 55.3093V56.1152ZM137.918 56.0861V56.8337H138.724V56.0861H137.918ZM138.452 56.4526C137.542 56.1405 136.643 55.9822 135.757 55.9822V56.7881C136.546 56.7881 137.356 56.9288 138.191 57.2149L138.452 56.4526ZM135.757 55.9822C134.9 55.9822 134.189 56.1153 133.68 56.4371C133.14 56.7786 132.872 57.3052 132.872 57.9552H133.678C133.678 57.5585 133.823 57.3001 134.111 57.1182C134.429 56.9166 134.959 56.7881 135.757 56.7881V55.9822ZM132.872 57.9552C132.872 58.4927 133.044 58.9597 133.444 59.2792C133.826 59.585 134.353 59.7039 134.957 59.7039V58.8981C134.439 58.8981 134.126 58.7928 133.947 58.6499C133.786 58.5208 133.678 58.3149 133.678 57.9552H132.872ZM134.957 59.7039H135.959V58.8981H134.957V59.7039ZM135.959 59.7039C136.791 59.7039 137.34 59.8663 137.675 60.1247C137.99 60.3679 138.173 60.7409 138.173 61.3197H138.979C138.979 60.5527 138.725 59.9164 138.168 59.4866C137.63 59.0722 136.872 58.8981 135.959 58.8981V59.7039ZM138.173 61.3197C138.173 61.9553 137.95 62.3823 137.532 62.67C137.087 62.9763 136.369 63.1597 135.316 63.1597V63.9656C136.436 63.9656 137.348 63.7752 137.989 63.3339C138.658 62.8739 138.979 62.1794 138.979 61.3197H138.173ZM135.316 63.1597C134.514 63.1597 133.694 63.0411 132.855 62.8014L132.633 63.5763C133.539 63.835 134.433 63.9656 135.316 63.9656V63.1597ZM146.352 59.8094V60.2124H146.734L146.754 59.8312L146.352 59.8094ZM140.393 59.8094V59.4065H139.99V59.8094H140.393ZM146.03 62.5159H146.433V61.9428L145.894 62.1368L146.03 62.5159ZM146.03 63.1888L146.167 63.568L146.433 63.4721V63.1888H146.03ZM140.393 59.1066L139.991 59.0868L139.97 59.5096H140.393V59.1066ZM145.612 59.1066V59.5096H146.021L146.015 59.1L145.612 59.1066ZM143.144 56.1152C144.145 56.1152 144.825 56.3902 145.262 56.874C145.706 57.3655 145.964 58.1424 145.964 59.2786H146.77C146.77 58.0372 146.49 57.031 145.86 56.3337C145.223 55.6286 144.292 55.3093 143.144 55.3093V56.1152ZM145.964 59.2786C145.964 59.4402 145.959 59.6098 145.949 59.7877L146.754 59.8312C146.765 59.6401 146.77 59.4559 146.77 59.2786H145.964ZM146.352 59.4065H140.393V60.2124H146.352V59.4065ZM139.99 59.8094C139.99 60.9043 140.281 61.798 140.931 62.4125C141.577 63.0231 142.51 63.2927 143.653 63.2927V62.4868C142.623 62.4868 141.925 62.2431 141.485 61.8268C141.048 61.4146 140.796 60.7681 140.796 59.8094H139.99ZM143.653 63.2927C144.582 63.2927 145.422 63.163 146.167 62.8951L145.894 62.1368C145.253 62.3673 144.508 62.4868 143.653 62.4868V63.2927ZM145.627 62.5159V63.1888H146.433V62.5159H145.627ZM145.894 62.8097C145.253 63.0402 144.508 63.1597 143.653 63.1597V63.9656C144.582 63.9656 145.422 63.8359 146.167 63.568L145.894 62.8097ZM143.653 63.1597C142.366 63.1597 141.475 62.8405 140.903 62.2729C140.332 61.7059 140.011 60.8232 140.011 59.5477H139.205C139.205 60.9489 139.558 62.0736 140.335 62.8449C141.112 63.6156 142.243 63.9656 143.653 63.9656V63.1597ZM140.011 59.5477C140.011 58.3236 140.294 57.4806 140.788 56.9443C141.277 56.4141 142.036 56.1152 143.144 56.1152V55.3093C141.895 55.3093 140.886 55.6497 140.196 56.398C139.512 57.1401 139.205 58.2149 139.205 59.5477H140.011ZM140.393 59.5096H145.612V58.7037H140.393V59.5096ZM146.015 59.1C145.999 58.1365 145.773 57.341 145.272 56.7845C144.762 56.2191 144.028 55.9672 143.144 55.9672V56.7731C143.876 56.7731 144.361 56.9774 144.673 57.3241C144.994 57.6798 145.195 58.2525 145.209 59.1132L146.015 59.1ZM143.144 55.9672C142.204 55.9672 141.421 56.2142 140.864 56.7686C140.31 57.32 140.038 58.1156 139.991 59.0868L140.795 59.1264C140.837 58.2733 141.07 57.7007 141.432 57.34C141.792 56.9822 142.34 56.7731 143.144 56.7731V55.9672Z" fill="#EFDFC6" mask="url(#path-1-outside-1_107_21)"/>
<path d="M164.689 47.4282L165.058 46.3595H163.927H162.109H161.535L161.348 46.9027L158.75 54.4344L158.382 55.503H159.512H161.33H161.905L162.092 54.9598L164.689 47.4282Z" fill="#F8F8F8" stroke="#F8F8F8" stroke-width="1.61179"/>
<path d="M140.509 50.3685V51.1744H141.315H143.133H143.939V50.3685V36.5364C145.829 35.241 147.704 34.6221 149.574 34.6221C151.103 34.6221 152.1 34.9671 152.711 35.5154C153.305 36.0488 153.668 36.8961 153.668 38.214V50.3685V51.1744H154.474H156.292H157.098V50.3685V38.9585C157.098 36.5818 156.516 34.6504 155.21 33.3172C153.901 31.9808 152 31.3827 149.661 31.3827C147.702 31.3827 145.792 31.8574 143.939 32.7878V25.6093V24.8034H143.133H141.315H140.509V25.6093V50.3685Z" fill="#F8F8F8" stroke="#F8F8F8" stroke-width="1.61179"/>
<path d="M122.329 49.5028V50.1107L122.914 50.2777C125 50.8739 127.06 51.1745 129.091 51.1745C131.675 51.1745 133.756 50.7345 135.21 49.7339C136.718 48.6959 137.446 47.1298 137.446 45.1743C137.446 43.4278 136.869 41.9958 135.618 41.0301C134.405 40.0949 132.681 39.6936 130.58 39.6936H128.26C127.048 39.6936 126.288 39.4476 125.842 39.091C125.431 38.762 125.17 38.2439 125.17 37.3829C125.17 36.4243 125.527 35.7834 126.232 35.337C127 34.8512 128.256 34.5528 130.113 34.5528C131.955 34.5528 133.846 34.8815 135.79 35.5481L136.858 35.914V34.7858V33.0544V32.4465L136.273 32.2795C134.187 31.6835 132.133 31.3828 130.113 31.3828C127.524 31.3828 125.439 31.8226 123.982 32.8228C122.47 33.8605 121.741 35.4267 121.741 37.3829C121.741 39.161 122.271 40.6298 123.454 41.6334C124.611 42.6155 126.261 43.0368 128.26 43.0368H130.58C131.926 43.0368 132.792 43.2747 133.302 43.6289C133.759 43.9459 134.016 44.4144 134.016 45.1743C134.016 46.134 133.661 46.7749 132.958 47.2208C132.193 47.7061 130.942 48.0044 129.091 48.0044C127.238 48.0044 125.34 47.6755 123.397 47.0091L122.329 46.6432V47.7714V49.5028Z" fill="#F8F8F8" stroke="#F8F8F8" stroke-width="1.61179"/>
<path d="M118.556 25.6093V24.8034H117.751H115.586H114.78V25.6093V27.687V28.4929H115.586H117.751H118.556V27.687V25.6093ZM118.383 32.1886V31.3827H117.577H115.759H114.953V32.1886V50.3685V51.1744H115.759H117.577H118.383V50.3685V32.1886Z" fill="#F8F8F8" stroke="#F8F8F8" stroke-width="1.61179"/>
<path d="M110.315 25.6093V24.8034H109.509H107.691H106.885V25.6093V50.3685V51.1744H107.691H109.509H110.315V50.3685V25.6093Z" fill="#F8F8F8" stroke="#F8F8F8" stroke-width="1.61179"/>
<path d="M87.0084 62.8001V63.381L87.5594 63.5647C89.3892 64.1746 91.4634 64.4718 93.7704 64.4718C96.5323 64.4718 98.7535 63.9083 100.294 62.644C101.865 61.3546 102.593 59.4504 102.593 57.0865V32.9332V32.2979L101.975 32.1496C99.8413 31.637 97.573 31.3828 95.1728 31.3828C91.9669 31.3828 89.4134 32.16 87.6644 33.8567C85.9108 35.5579 85.1038 38.0488 85.1038 41.1747C85.1038 44.3511 85.8476 46.8834 87.4775 48.6214C89.1166 50.3691 91.5201 51.1745 94.5322 51.1745C95.9218 51.1745 97.4673 50.9617 99.163 50.5478V57.0865C99.163 58.5873 98.7104 59.5827 97.9189 60.2275C97.0958 60.898 95.7709 61.3017 93.805 61.3017C91.6459 61.3017 89.7356 61.0219 88.0646 60.4758L87.0084 60.1307V61.2419V62.8001ZM95.0343 34.6221C96.3874 34.6221 97.7635 34.722 99.163 34.9227V47.106C97.4922 47.5937 95.9558 47.8312 94.5495 47.8312C92.4014 47.8312 90.933 47.2487 89.9882 46.2183C89.0313 45.1745 88.4817 43.5314 88.4817 41.1401C88.4817 38.824 89.0628 37.2347 90.0839 36.2184C91.1058 35.2013 92.7047 34.6221 95.0343 34.6221Z" fill="#F8F8F8" stroke="#F8F8F8" stroke-width="1.61179"/>
<path d="M65.4349 50.3686V51.1745H66.2408H68.0588H68.8647V50.3686V36.5364C70.7546 35.241 72.6293 34.6221 74.4997 34.6221C76.0421 34.6221 77.049 34.9441 77.6611 35.4502C78.2438 35.932 78.5937 36.6861 78.5937 37.8677V50.3686V51.1745H79.3996H81.2176H82.0235V50.3686V37.9197C82.0235 35.852 81.4199 34.1638 80.0867 33.0117C78.7761 31.8789 76.8945 31.3828 74.5863 31.3828C72.5387 31.3828 70.4882 31.9847 68.4418 33.1446L68.3415 32.1108L68.2709 31.3828H67.5394H66.2408H65.4349V32.1887V50.3686Z" fill="#F8F8F8" stroke="#F8F8F8" stroke-width="1.61179"/>
<path d="M60.1722 10.9788V10.1729H59.3663H33.5013H32.6954V10.9788V50.3685V51.1744H33.5013H59.752H60.5578V50.3685V47.8895V47.0836H59.752H37.1994V32.4436H58.4298H59.2357V31.6377V29.1587V28.3528H58.4298H37.1994V14.2637H59.3663H60.1722V13.4578V10.9788Z" fill="#F8F8F8" stroke="#F8F8F8" stroke-width="1.61179"/>
<path d="M10.5238 50.3686V51.1745H11.3297H13.1476H13.9535V50.3686V36.5364C15.8434 35.241 17.7181 34.6221 19.5885 34.6221C21.1309 34.6221 22.1379 34.9441 22.7499 35.4502C23.3326 35.932 23.6825 36.6861 23.6825 37.8677V50.3686V51.1745H24.4884H26.3064H27.1123V50.3686V37.9197C27.1123 35.852 26.5087 34.1638 25.1755 33.0117C23.8649 31.8789 21.9833 31.3828 19.6751 31.3828C17.6275 31.3828 15.577 31.9847 13.5306 33.1446L13.4303 32.1108L13.3597 31.3828H12.6282H11.3297H10.5238V32.1887V50.3686Z" fill="#F8F8F8" stroke="#F8F8F8" stroke-width="1.61179"/>
<path d="M6.40456 25.6093V24.8034H5.59866H3.43439H2.62849V25.6093V27.687V28.4929H3.43439H5.59866H6.40456V27.687V25.6093ZM6.23142 32.1886V31.3827H5.42552H3.60753H2.80163V32.1886V50.3685V51.1744H3.60753H5.42552H6.23142V50.3685V32.1886Z" fill="#F8F8F8" stroke="#F8F8F8" stroke-width="1.61179"/>
</svg>
